<svg width="16" height="16" viewBox="0 0 16 16" fill="none" xmlns="http://www.w3.org/2000/svg">
<path fill-rule="evenodd" clip-rule="evenodd" d="M14.6664 2.51666C14.6695 2.11492 14.4375 1.74844 14.073 1.57933C12.1596 0.738767 10.0895 0.314069 7.9997 0.33333C5.90988 0.314069 3.83979 0.738767 1.92637 1.57933C1.56194 1.74844 1.32996 2.11492 1.33304 2.51666V7.608C1.32753 10.9894 3.40068 14.0266 6.5517 15.2533L7.26304 15.5293C7.73704 15.7127 8.26237 15.7127 8.73637 15.5293L9.4477 15.2533C12.5987 14.0266 14.6719 10.9894 14.6664 7.608V2.51666ZM7.99951 13C8.5518 13 8.99951 12.5523 8.99951 12C8.99951 11.4477 8.5518 11 7.99951 11C7.44723 11 6.99951 11.4477 6.99951 12C6.99951 12.5523 7.44723 13 7.99951 13ZM8.99951 8.83333C8.99951 9.47767 8.5518 10 7.99951 10C7.44723 10 6.99951 9.47767 6.99951 8.83333V4.16667C6.99951 3.52233 7.44723 3 7.99951 3C8.5518 3 8.99951 3.52233 8.99951 4.16667V8.83333Z" fill="#F29E18"/>
</svg>
