<svg width="16" height="16" viewBox="0 0 16 16" fill="none" xmlns="http://www.w3.org/2000/svg">
<path fill-rule="evenodd" clip-rule="evenodd" d="M14.073 1.57933C14.4375 1.74844 14.6695 2.11492 14.6664 2.51666V7.608C14.6719 10.9894 12.5987 14.0266 9.4477 15.2533L8.73637 15.5293C8.26237 15.7127 7.73704 15.7127 7.26304 15.5293L6.5517 15.2533C3.40068 14.0266 1.32753 10.9894 1.33304 7.608V2.51666C1.32996 2.11492 1.56194 1.74844 1.92637 1.57933C3.83979 0.738767 5.90988 0.314069 7.9997 0.33333C10.0895 0.314069 12.1596 0.738767 14.073 1.57933ZM8.31503 10.9807L12.3384 5.49266H12.3357C12.5168 5.25283 12.5548 4.93405 12.435 4.6584C12.3153 4.38275 12.0564 4.19293 11.7574 4.16165C11.4585 4.13036 11.1659 4.26245 10.9917 4.50733L7.65837 9.05466C7.62962 9.09402 7.58508 9.11883 7.53649 9.12255C7.48789 9.12627 7.4401 9.10853 7.4057 9.074L5.17837 6.846C4.85147 6.53009 4.33172 6.53446 4.01018 6.85582C3.68864 7.17717 3.68398 7.69692 3.9997 8.024L7.05103 11.074C7.20715 11.2306 7.41921 11.3187 7.64037 11.3187H7.70703C7.94926 11.2999 8.17127 11.1765 8.31503 10.9807Z" fill="#00BF86"/>
</svg>
