<svg xmlns="http://www.w3.org/2000/svg" width="632.421" height="103.961" viewBox="0 0 632.421 103.961" fill="#203346"><path d="M0 21.02L21.02.167 42.04 21.02 21.02 41.87zm83.226 0L104.245.167l21.02 20.852-21.02 20.852z"/><path d="M20.805 41.66l21.02-20.852 21.02 20.852-21.02 20.852z"/><path d="M62.42 41.66l21.02-20.852 21.02 20.852L83.44 62.5zM0 62.3l21.02-20.85L42.038 62.3 21.02 83.153z"/><path d="M20.805 82.943h42.038l-21.02 20.852z"/><path d="M62.632 82.733l21.02 20.852z"/><path d="M20.805 82.943l21.02-20.852 21.02 20.852z" opacity=".5"/><path d="M62.42 82.943L83.44 62.09l21.02 20.852z" opacity=".5"/><path d="M62.42 82.943h42.038l-21.02 20.852z"/><path d="M83.226 62.3l21.02-20.852 21.02 20.852-21.02 20.852zM212.98 76.812c-1.314 4.777-4.3 8.918-8.435 11.66a26 26 0 0 1-14.494 3.937 27.67 27.67 0 0 1-13.839-3.33 22.25 22.25 0 0 1-9.048-9.545 32.22 32.22 0 0 1-3.154-14.747 32.22 32.22 0 0 1 3.153-14.745c1.98-4.012 5.117-7.338 9.008-9.545a27.26 27.26 0 0 1 13.716-3.332c4.992-.158 9.933 1.05 14.3 3.493 3.903 2.327 6.783 6.04 8.066 10.4l-10.235 4.306q-1.3-4.793-4.094-6.906a12.18 12.18 0 0 0-7.534-2.112q-6.88 0-10.766 4.793-3.887 4.793-3.893 13.648 0 8.855 3.767 13.648 3.767 4.793 10.644 4.794 9.907 0 12.447-9.5zm46.76-5.7a28.6 28.6 0 0 1-.328 4.387h-28.988q1.718 8.613 10.236 8.613a11.66 11.66 0 0 0 5.814-1.3 6.95 6.95 0 0 0 3.194-3.737l9.172 3.33c-1.248 3.18-3.584 5.814-6.592 7.433a23.73 23.73 0 0 1-11.587 2.557q-10.154 0-15.723-5.567-5.57-5.567-5.57-15.55 0-9.992 5.4-15.557 5.4-5.565 15.233-5.568 9.5 0 14.617 5.443 5.117 5.443 5.12 15.516zm-19.817-12.75c-2.4-.123-4.745.727-6.5 2.356-1.773 1.923-2.853 4.382-3.07 6.988h19.08a11.72 11.72 0 0 0-3.112-6.944 8.76 8.76 0 0 0-6.387-2.4zm52.4-8.206c1.526-.084 3.048.224 4.422.893l-1.392 9.747c-1.568-.9-3.358-1.314-5.16-1.218a9.49 9.49 0 0 0-6.92 2.884q-2.907 2.884-2.907 8.083v21.043h-11.22v-40.62h9.745l.74 7.96q3.354-8.773 12.7-8.773zm37.915 38.915a14.81 14.81 0 0 1-4.954 2.437c-2.034.6-4.144.902-6.265.893q-13.674 0-13.674-12.267v-20.88H297.9v-8.287h7.454v-9.342l11.22-3.087v12.43h13.266v8.287h-13.267v19.1q0 5.605 5.65 5.605c2.306.033 4.546-.775 6.3-2.273zm12.693-43.958q-6.96 0-6.96-5.93 0-6.012 6.96-6.012 6.96 0 6.96 6.012 0 5.93-6.96 5.93zm5.57 46.47H337.3v-40.62h11.22zm25.55-40.62H387v8.287h-12.45v32.333h-11.218V59.265h-7.124v-8.287h7.124v-4.874q0-6.662 4.176-10.2 4.176-3.538 11.3-3.534c1.668-.016 3.332.175 4.954.568a10.1 10.1 0 0 1 3.562 1.544l-1.556 7.393a8.42 8.42 0 0 0-4.668-1.218q-7.044 0-7.044 6.256zm55.52 33.877a9.79 9.79 0 0 0 2.784-.325l-.82 6.746a11.82 11.82 0 0 1-5.326 1.136q-7.858 0-9.414-6.094a11.16 11.16 0 0 1-5.566 4.553c-2.847 1.1-5.88 1.614-8.928 1.544q-5.978 0-9.334-2.68a9.3 9.3 0 0 1-3.357-7.718q0-9.912 15.97-12.836l9.827-1.868v-1.954c.1-1.897-.564-3.754-1.842-5.16a6.78 6.78 0 0 0-5.118-1.91c-2.165-.095-4.307.472-6.142 1.625-1.715 1.287-2.885 3.172-3.276 5.28l-8.93-3.737a13.47 13.47 0 0 1 5.9-8.287q4.586-3.006 11.956-3.006 8.762 0 13.676 3.778 4.914 3.778 4.913 11.17v16.656c-.078.852.188 1.7.737 2.356.637.537 1.462.8 2.292.73zm-23.748 0a12.83 12.83 0 0 0 6.592-1.747 5.32 5.32 0 0 0 2.99-4.752v-4.224l-8.762 1.95a10.35 10.35 0 0 0-4.135 1.747 3.7 3.7 0 0 0-1.35 3.047c-.074 1.126.38 2.222 1.228 2.965a5.21 5.21 0 0 0 3.44 1.015zm51.918-34.7q8.107 0 12.6 3.25c2.97 2.12 5.135 5.184 6.142 8.692l-10.48 3.737q-1.474-7.393-7.943-7.393a8.86 8.86 0 0 0-7.411 3.29q-2.58 3.3-2.577 9.623.002 6.333 2.62 9.545a8.9 8.9 0 0 0 7.288 3.22q7.206 0 8.517-7.23l10.154 3.25a14.6 14.6 0 0 1-6.106 8.938q-4.8 3.33-12.407 3.33-10.154 0-15.723-5.567-5.57-5.567-5.57-15.554 0-9.992 5.527-15.557 5.527-5.565 15.357-5.563zm55.93 38.915a14.81 14.81 0 0 1-4.949 2.446 21.81 21.81 0 0 1-6.264.893q-13.676 0-13.676-12.267v-20.88h-7.46V50.98h7.452v-9.34l11.22-3.087v12.43h13.266v8.287h-13.264v19.1q0 5.605 5.65 5.605c2.306.033 4.546-.775 6.3-2.273zm12.693-43.954q-6.96 0-6.96-5.928 0-6.012 6.96-6.012 6.96 0 6.96 6.012 0 5.93-6.963 5.93zm5.568 46.47h-11.22V50.96h11.22zm30.708-41.42q9.907 0 15.437 5.605 5.53 5.605 5.528 15.517 0 9.912-5.528 15.517-5.528 5.605-15.437 5.605-9.907 0-15.436-5.605-5.53-5.605-5.523-15.517 0-9.912 5.528-15.517 5.528-5.605 15.43-5.605zm0 8.287a8.63 8.63 0 0 0-7.247 3.208q-2.5 3.208-2.5 9.623 0 6.415 2.5 9.623a8.64 8.64 0 0 0 7.245 3.209 8.63 8.63 0 0 0 7.248-3.209q2.5-3.2 2.5-9.623 0-6.414-2.5-9.623a8.64 8.64 0 0 0-7.246-3.204zm55.032-8.287q6.633 0 10.686 3.818 4.053 3.818 4.054 10.964v26.65h-11.22v-23.4q0-9.26-7.288-9.26a9.05 9.05 0 0 0-6.674 2.762q-2.743 2.762-2.743 8.45V91.59h-11.22V50.97h10.072l.328 7.23c1.24-2.523 3.2-4.617 5.65-6.012a16.72 16.72 0 0 1 8.353-2.031zM62.625 82.736l20.975 20.8H41.65z"/></svg>
