<svg xmlns="http://www.w3.org/2000/svg" width="142" height="168" viewBox="0 0 142 168" fill="none"  xmlns:v="https://vecta.io/nano"><g filter="url(#A)"><path transform="translate(12 10)" fill="#fff" d="M0 0h100v138H0z"/><path fill-rule="evenodd" d="M23.25 22.545c-.69 0-1.25.562-1.25 1.255s.56 1.255 1.25 1.255H52c.69 0 1.25-.562 1.25-1.255s-.56-1.255-1.25-1.255H23.25zm0 7.527c-.69 0-1.25.562-1.25 1.255s.56 1.255 1.25 1.255H52c.69 0 1.25-.562 1.25-1.255s-.56-1.255-1.25-1.255H23.25zM22 51.4c0-.693.56-1.255 1.25-1.255h77.5c.69 0 1.25.562 1.25 1.255s-.56 1.255-1.25 1.255h-77.5c-.69 0-1.25-.562-1.25-1.255zm1.25 6.273c-.69 0-1.25.562-1.25 1.255s.56 1.255 1.25 1.255h77.5c.69 0 1.25-.562 1.25-1.255s-.56-1.255-1.25-1.255h-77.5zM22 66.455c0-.693.56-1.254 1.25-1.254h77.5c.69 0 1.25.562 1.25 1.254s-.56 1.255-1.25 1.255h-77.5c-.69 0-1.25-.562-1.25-1.255zm1.25 6.273c-.69 0-1.25.562-1.25 1.255s.56 1.254 1.25 1.254h77.5c.69 0 1.25-.562 1.25-1.254s-.56-1.255-1.25-1.255h-77.5zM22 81.509c0-.693.56-1.255 1.25-1.255h77.5c.69 0 1.25.562 1.25 1.255s-.56 1.255-1.25 1.255h-77.5c-.69 0-1.25-.562-1.25-1.255zm1.25 6.273c-.69 0-1.25.562-1.25 1.254s.56 1.255 1.25 1.255h35c.69 0 1.25-.562 1.25-1.255s-.56-1.254-1.25-1.254h-35zM22 136.709a1.25 1.25 0 0 1 1.25-1.254H52a1.25 1.25 0 0 1 1.25 1.254c0 .693-.56 1.255-1.25 1.255H23.25c-.69 0-1.25-.562-1.25-1.255zm50.625-1.254a1.25 1.25 0 0 0-1.25 1.254c0 .693.56 1.255 1.25 1.255h28.125c.69 0 1.25-.562 1.25-1.255s-.56-1.254-1.25-1.254H72.625z" fill="#14213d" fill-opacity=".5"/></g><path fill-rule="evenodd" d="M92 138c0-11.046 8.954-20 20-20 11.04.013 19.987 8.96 20 20 0 11.046-8.954 20-20 20s-20-8.954-20-20zm29.604 8.414c.153-.583-.021-1.202-.454-1.621l-6.5-6.498c-.078-.078-.122-.184-.122-.294s.044-.216.122-.294l6.5-6.5c.45-.414.638-1.042.488-1.635a1.67 1.67 0 0 0-1.206-1.208c-.593-.15-1.221.036-1.635.486l-6.5 6.5a.42.42 0 0 1-.295.122c-.111 0-.217-.044-.295-.122l-6.5-6.5a1.67 1.67 0 0 0-2.358-.003c-.652.651-.653 1.706-.002 2.358l6.5 6.5c.078.078.122.184.122.294s-.044.216-.122.294l-6.5 6.5c-.651.651-.651 1.706 0 2.357.655.64 1.701.64 2.356 0l6.5-6.5a.42.42 0 0 1 .59 0l6.5 6.5c.419.433 1.038.607 1.621.454s1.038-.607 1.19-1.19z" fill="#ee4266"/><defs><filter id="A" x="0" y="0" width="124" height="162" filterUnits="userSpaceOnUse" color-interpolation-filters="sRGB"><feFlood flood-opacity="0" result="A"/><feColorMatrix in="SourceAlpha" values="0 0 0 0 0 0 0 0 0 0 0 0 0 0 0 0 0 0 127 0"/><feOffset dy="1"/><feGaussianBlur stdDeviation="2"/><feColorMatrix values="0 0 0 0 0.12549 0 0 0 0 0.2 0 0 0 0 0.27451 0 0 0 0.04 0"/><feBlend in2="A" result="B"/><feColorMatrix in="SourceAlpha" values="0 0 0 0 0 0 0 0 0 0 0 0 0 0 0 0 0 0 127 0"/><feOffset dy="2"/><feGaussianBlur stdDeviation="6"/><feColorMatrix values="0 0 0 0 0.12549 0 0 0 0 0.2 0 0 0 0 0.27451 0 0 0 0.09 0"/><feBlend in2="B"/><feBlend in="SourceGraphic"/></filter></defs></svg>
