<svg xmlns="http://www.w3.org/2000/svg" width="20" height="20" viewBox="0 0 20 20" fill="none"  xmlns:v="https://vecta.io/nano"><g clip-path="url(#A)" fill="#0669f2"><path d="M5.441 13.218c-.104.104-.163.245-.163.393a.55.55 0 0 0 .163.393c.105.104.245.163.393.163a.55.55 0 0 0 .393-.163l.713-.713c.049-.049.11-.084.177-.102s.138-.017.205.001.128.054.177.103.083.111.101.178c.029.117.086.226.166.317s.181.161.293.204a.75.75 0 0 0 .69-.077l.542-.362c.076-.05.167-.073.257-.064a.4.4 0 0 1 .24.113l.399.399c.104.104.245.163.393.163h2.199c.147 0 .289-.058.393-.163s.163-.245.163-.393-.059-.289-.163-.393-.245-.163-.393-.163h-1.912a.14.14 0 0 1-.098-.041l-.195-.195a1.51 1.51 0 0 0-1.899-.188l-.077.052a.14.14 0 0 1-.1.021c-.035-.006-.066-.025-.087-.053-.13-.17-.296-.309-.484-.41a1.5 1.5 0 0 0-.61-.174 1.51 1.51 0 0 0-.628.093 1.5 1.5 0 0 0-.533.344l-.713.714zm11.226-4.051c0-.147-.058-.289-.163-.393s-.245-.163-.393-.163h-1.667c-.147 0-.289.059-.393.163s-.163.245-.163.393.059.289.163.393.245.163.393.163h.972c.018 0 .036.003.053.01s.032.017.045.03.023.028.03.045.011.035.01.053v5.556c0 .037-.015.072-.041.098s-.061.041-.098.041H4.583c-.037 0-.072-.015-.098-.041s-.041-.061-.041-.098V9.861c0-.018.003-.036.01-.053s.017-.032.03-.045.028-.023.045-.03.035-.011.053-.01h2.083c.147 0 .289-.059.393-.163s.163-.245.163-.393-.059-.289-.163-.393-.245-.163-.393-.163H3.889c-.147 0-.289.059-.393.163s-.163.245-.163.393v6.667c0 .221.088.433.244.589s.368.244.589.244h11.667c.221 0 .433-.088.589-.244s.244-.368.244-.589V9.167zM15.13 5.818a1.46 1.46 0 0 0 .427-1.03c0-.386-.153-.757-.427-1.03a1.46 1.46 0 0 0-1.03-.427c-.386 0-.757.153-1.03.427L9.36 7.469a.14.14 0 0 0 0 .197l1.862 1.863c.013.013.028.023.045.03a.14.14 0 0 0 .053.011.14.14 0 0 0 .053-.011c.017-.007.032-.017.045-.03l3.712-3.711zm-6.715 4.656a.28.28 0 0 0 .196.082.26.26 0 0 0 .056-.005l1.746-.35c.024-.005.047-.017.066-.034a.14.14 0 0 0 .005-.201l-1.562-1.56a.14.14 0 0 0-.234.071l-.349 1.745a.28.28 0 0 0 .006.135c.013.044.037.084.07.116z"/></g><defs><clipPath id="A"><path fill="#fff" transform="translate(3.333 3.333)" d="M0 0h13.333v13.333H0z"/></clipPath></defs></svg>
