<svg xmlns="http://www.w3.org/2000/svg" width="24" height="24" viewBox="0 0 24 24" fill="#0669f2" xmlns:v="https://vecta.io/nano"><path d="M12 9.667h4.667c.368 0 .667-.298.667-.667s-.299-.667-.667-.667H12c-.368 0-.667.298-.667.667s.298.667.667.667zm8-2.724A1.33 1.33 0 0 0 19.609 6L18 4.39c-.25-.25-.589-.39-.943-.39H9.333C8.597 4 8 4.597 8 5.333v4.85c-.001.09.071.165.161.167l.99.055c.047.005.093-.01.128-.042s.054-.077.054-.124V5.667c0-.184.149-.333.333-.333h7.253c.088 0 .173.035.235.097l1.415 1.415c.062.062.097.147.097.235V16c0 .184-.149.333-.333.333h-4.572c-.081 0-.149.06-.161.14a5.26 5.26 0 0 1-.243.972c-.019.05-.012.106.018.15s.081.07.134.07h5.157c.736 0 1.333-.597 1.333-1.333V6.943zm-4.333 5.058a.67.67 0 0 0-.667-.667h-2.667a.64.64 0 0 0-.453.192c-.024.022-.037.054-.036.086s.016.063.04.084a5.36 5.36 0 0 1 .807.902.16.16 0 0 0 .133.067H15c.367 0 .666-.297.667-.665z"/><path fill-rule="evenodd" d="M12.667 15.667c0 2.393-1.94 4.333-4.333 4.333A4.34 4.34 0 0 1 4 15.667c0-2.393 1.94-4.333 4.333-4.333s4.333 1.94 4.333 4.333zm-5.967.189c-.056.116-.04.252.04.353l1.333 1.667c.065.076.161.119.261.119s.195-.043.261-.119l1.333-1.667c.08-.1.095-.237.04-.353s-.172-.189-.301-.189h-.5c-.092 0-.167-.075-.167-.167v-1.833c0-.368-.298-.667-.667-.667s-.667.298-.667.667v1.833c0 .092-.075.167-.167.167H7c-.128 0-.245.073-.301.189z"/></svg>
