<svg width="14" height="16" viewBox="0 0 14 16" fill="none" xmlns="http://www.w3.org/2000/svg">
<path fill-rule="evenodd" clip-rule="evenodd" d="M13.073 1.57933C13.4375 1.74844 13.6695 2.11492 13.6664 2.51666V7.608C13.6719 10.9894 11.5987 14.0266 8.44771 15.2533L7.73637 15.5293C7.26237 15.7127 6.73704 15.7127 6.26304 15.5293L5.55171 15.2533C2.40068 14.0266 0.327531 10.9894 0.333038 7.608V2.51666C0.329956 2.11492 0.561939 1.74844 0.926372 1.57933C2.83979 0.738767 4.90988 0.314069 6.99971 0.33333C9.08953 0.314069 11.1596 0.738767 13.073 1.57933ZM10.0796 11.0759C10.3398 10.8156 10.3398 10.3936 10.0796 10.1333L8.23623 8.29261C8.17353 8.23007 8.1383 8.14516 8.1383 8.05661C8.1383 7.96806 8.17353 7.88315 8.23623 7.82061L10.0796 5.97728C10.3322 5.71569 10.3286 5.29989 10.0714 5.04273C9.81428 4.78558 9.39848 4.78196 9.13689 5.03461L7.29289 6.87794C7.16273 7.00807 6.95173 7.00807 6.82156 6.87794L4.97823 5.03461C4.81084 4.86131 4.56297 4.7918 4.32989 4.85281C4.0968 4.91382 3.91477 5.09585 3.85376 5.32894C3.79275 5.56203 3.86225 5.80989 4.03556 5.97728L5.87889 7.82061C5.94159 7.88315 5.97682 7.96806 5.97682 8.05661C5.97682 8.14516 5.94159 8.23007 5.87889 8.29261L4.03556 10.1359C3.7753 10.3963 3.7753 10.8183 4.03556 11.0786C4.30029 11.328 4.7135 11.328 4.97823 11.0786L6.82156 9.23528C6.95173 9.10515 7.16273 9.10515 7.29289 9.23528L9.13689 11.0759C9.39857 11.3329 9.81789 11.3329 10.0796 11.0759Z" fill="#EE4266"/>
</svg>
