<svg xmlns="http://www.w3.org/2000/svg" viewBox="0 0 16 16" width="16" height="16" fill="none" xmlns:v="https://vecta.io/nano">
    <path
        d="M10.648 14.391c1.062.336 2.222.053 3.01-.734s1.071-1.948.734-3.01C15.38 10.134 16 9.113 16 8s-.62-2.134-1.608-2.647c.336-1.062.053-2.222-.734-3.01s-1.948-1.071-3.01-.734C10.135.62 9.114 0 8 0S5.865.62 5.352 1.609c-1.061-.336-2.221-.053-3.008.734S1.273 4.289 1.608 5.35C.62 5.863 0 6.884 0 7.997s.62 2.134 1.608 2.647c-.338 1.062-.055 2.224.733 3.013s1.95 1.072 3.012.734C5.866 15.38 6.887 16 8.001 16s2.135-.62 2.647-1.609z"
        fill="#f29e18" />
    <path
        d="M8.061 12.525a.941.941 0 1 1 0-1.882.941.941 0 1 1 0 1.882zm.929-3.887c-.229.1-.377.326-.376.575a.63.63 0 0 1-.627.627.63.63 0 0 1-.627-.627 1.88 1.88 0 0 1 1.129-1.725c.574-.251.876-.887.706-1.49s-.759-.989-1.38-.903-1.083.617-1.083 1.244a.63.63 0 0 1-.627.627.63.63 0 0 1-.627-.627 2.51 2.51 0 1 1 3.514 2.3h0z"
        fill="#fff" />
</svg>
