<svg xmlns="http://www.w3.org/2000/svg" width="16" height="16" viewBox="0 0 16 16" fill="none" xmlns:v="https://vecta.io/nano">
    <path fill-rule="evenodd"
          d="M13.658 13.657c-.787.787-1.948 1.071-3.01.734C10.135 15.38 9.114 16 8.001 16s-2.135-.62-2.647-1.609c-1.062.337-2.224.054-3.012-.734s-1.071-1.95-.733-3.013C.62 10.131 0 9.11 0 7.997S.62 5.863 1.608 5.35c-.335-1.061-.051-2.221.736-3.007s1.947-1.07 3.008-.734C5.865.62 6.886 0 8 0s2.135.62 2.648 1.609c1.062-.336 2.222-.053 3.01.734s1.071 1.948.734 3.01C15.38 5.866 16 6.887 16 8s-.62 2.134-1.608 2.647c.336 1.062.053 2.222-.734 3.01zM4.401 8.329c-.065.247.009.509.192.687l1.621 1.624a1.41 1.41 0 0 0 2.125-.142l3.512-4.587c.237-.31.178-.753-.132-.99s-.753-.178-.99.132L7.218 9.643 5.592 8.018c-.177-.184-.44-.257-.686-.193s-.44.257-.504.504z"
          fill="#0669f2" />
</svg>
